<svg width="1200" height="630" viewBox="0 0 1200 630" fill="none" xmlns="http://www.w3.org/2000/svg">
  <defs>
    <linearGradient id="bg" x1="0" y1="0" x2="1200" y2="630" gradientUnits="userSpaceOnUse">
      <stop offset="0" stop-color="#0d1117"/>
      <stop offset="1" stop-color="#111b2a"/>
    </linearGradient>
    <linearGradient id="line" x1="80" y1="490" x2="1120" y2="190" gradientUnits="userSpaceOnUse">
      <stop offset="0" stop-color="#22d3ee"/>
      <stop offset="1" stop-color="#f97316"/>
    </linearGradient>
  </defs>
  <rect width="1200" height="630" fill="url(#bg)"/>
  <rect x="70" y="78" width="1060" height="474" rx="24" fill="#111827" stroke="#233043"/>

  <text x="120" y="178" fill="#f8fafc" font-size="58" font-family="'Space Grotesk', sans-serif" font-weight="700">
    Token Cost Tracker
  </text>
  <text x="120" y="228" fill="#94a3b8" font-size="30" font-family="'Space Grotesk', sans-serif">
    Per-agent AI spend visibility with instant budget alerts
  </text>

  <g>
    <rect x="120" y="280" width="220" height="118" rx="14" fill="#0f172a" stroke="#1e293b"/>
    <text x="144" y="322" fill="#94a3b8" font-size="22" font-family="'IBM Plex Mono', monospace">Yesterday</text>
    <text x="144" y="365" fill="#f97316" font-size="36" font-family="'IBM Plex Mono', monospace">$148.21</text>
  </g>

  <g>
    <rect x="360" y="280" width="220" height="118" rx="14" fill="#0f172a" stroke="#1e293b"/>
    <text x="384" y="322" fill="#94a3b8" font-size="22" font-family="'IBM Plex Mono', monospace">30 Days</text>
    <text x="384" y="365" fill="#22d3ee" font-size="36" font-family="'IBM Plex Mono', monospace">$1,924</text>
  </g>

  <g>
    <rect x="600" y="280" width="220" height="118" rx="14" fill="#0f172a" stroke="#1e293b"/>
    <text x="624" y="322" fill="#94a3b8" font-size="22" font-family="'IBM Plex Mono', monospace">Runaways</text>
    <text x="624" y="365" fill="#ef4444" font-size="36" font-family="'IBM Plex Mono', monospace">2</text>
  </g>

  <path d="M120 490C224 452 306 438 420 424C548 406 620 362 744 338C866 314 960 274 1080 206" stroke="url(#line)" stroke-width="8" stroke-linecap="round"/>
  <circle cx="1080" cy="206" r="10" fill="#f97316"/>
</svg>
